erDiagram

%% This is the source file for `model-diagram.svg`.
%% Build command: `npm i && npm run build-diagram`

"User agent" ||--|| "Storage shed" : "holds (local)"
"Browsing session" ||--|| "Storage shed" : "holds (session)"
"Storage shed" ||--o{ "Storage shelf" : "for each storage key"
"Storage shelf" ||--|| "Storage bucket" : "holds (default)"
"Storage bucket" ||--|{ "Storage bottle" : "for each storage endpoint"
